<?xml version="1.0" encoding="UTF-8"?>
<svg id="Layer_2" data-name="Layer 2" xmlns="http://www.w3.org/2000/svg" viewBox="0 0 669.91 260.64">
  <defs>
    <style>
      .cls-1 {
        fill: #00dec8;
      }

      .cls-2 {
        fill: #002136;
      }

      .cls-3 {
        fill: #dc005a;
      }
    </style>
  </defs>
  <g id="Layer_1-2" data-name="Layer 1">
    <g>
      <g>
        <g>
          <path class="cls-2" d="M222.02,194.84l1.54-1.82c2.3,2.07,4.49,3.11,7.54,3.11s4.9-1.57,4.9-3.74v-.06c0-2.04-1.1-3.2-5.72-4.18-5.06-1.1-7.38-2.73-7.38-6.35v-.06c0-3.46,3.05-6,7.23-6,3.2,0,5.5.91,7.73,2.7l-1.45,1.92c-2.04-1.67-4.08-2.39-6.34-2.39-2.86,0-4.68,1.57-4.68,3.55v.06c0,2.07,1.13,3.24,5.97,4.27,4.9,1.07,7.16,2.86,7.16,6.22v.06c0,3.77-3.14,6.22-7.51,6.22-3.48,0-6.34-1.16-8.98-3.52"/>
          <path class="cls-2" d="M241.91,181.8h2.42v2.73c1.07-1.6,2.51-3.08,5.24-3.08s4.33,1.41,5.22,3.24c1.16-1.79,2.89-3.24,5.72-3.24,3.74,0,6.03,2.51,6.03,6.53v10.05h-2.42v-9.49c0-3.14-1.57-4.9-4.21-4.9-2.45,0-4.49,1.82-4.49,5.03v9.36h-2.39v-9.55c0-3.05-1.6-4.84-4.18-4.84s-4.52,2.14-4.52,5.12v9.27h-2.42v-16.24Z"/>
          <path class="cls-2" d="M283.66,189.94v-.06c0-3.74-2.86-6.25-5.87-6.25s-5.72,2.33-5.72,6.25v.06c0,3.83,2.64,6.28,5.72,6.28s5.87-2.54,5.87-6.28M269.58,189.97v-.06c0-5.31,3.86-8.45,7.76-8.45,3.02,0,4.96,1.63,6.22,3.45v-3.11h2.42v16.24h-2.42v-3.27c-1.32,1.95-3.23,3.61-6.22,3.61-3.9,0-7.76-3.08-7.76-8.42"/>
          <path class="cls-2" d="M290.13,181.8h2.42v4.24c1.19-2.7,3.55-4.65,6.63-4.52v2.61h-.19c-3.55,0-6.44,2.54-6.44,7.44v6.47h-2.42v-16.24Z"/>
          <path class="cls-2" d="M302.44,193.74v-9.8h-2.26v-2.14h2.26v-4.9h2.42v4.9h5.15v2.14h-5.15v9.49c0,1.98,1.1,2.7,2.73,2.7.82,0,1.51-.16,2.36-.57v2.07c-.85.44-1.76.69-2.92.69-2.61,0-4.59-1.29-4.59-4.59"/>
          <path class="cls-2" d="M329.24,195.75c5.56,0,9.11-3.77,9.11-8.64v-.06c0-4.87-3.55-8.7-9.11-8.7h-5.15v17.4h5.15ZM321.61,176.06h7.63c6.91,0,11.68,4.74,11.68,10.93v.06c0,6.19-4.78,10.99-11.68,10.99h-7.63v-21.99Z"/>
          <path class="cls-2" d="M357.64,189.94v-.06c0-3.74-2.86-6.25-5.87-6.25s-5.72,2.33-5.72,6.25v.06c0,3.83,2.64,6.28,5.72,6.28s5.87-2.54,5.87-6.28M343.56,189.97v-.06c0-5.31,3.86-8.45,7.76-8.45,3.02,0,4.96,1.63,6.22,3.45v-3.11h2.42v16.24h-2.42v-3.27c-1.32,1.95-3.23,3.61-6.22,3.61-3.9,0-7.76-3.08-7.76-8.42"/>
          <path class="cls-2" d="M364.96,193.74v-9.8h-2.26v-2.14h2.26v-4.9h2.42v4.9h5.15v2.14h-5.15v9.49c0,1.98,1.1,2.7,2.73,2.7.82,0,1.51-.16,2.36-.57v2.07c-.85.44-1.76.69-2.92.69-2.61,0-4.59-1.29-4.59-4.59"/>
          <path class="cls-2" d="M388.2,189.94v-.06c0-3.74-2.86-6.25-5.87-6.25s-5.72,2.33-5.72,6.25v.06c0,3.83,2.64,6.28,5.72,6.28s5.87-2.54,5.87-6.28M374.13,189.97v-.06c0-5.31,3.86-8.45,7.76-8.45,3.02,0,4.96,1.63,6.22,3.45v-3.11h2.42v16.24h-2.42v-3.27c-1.32,1.95-3.23,3.61-6.22,3.61-3.9,0-7.76-3.08-7.76-8.42"/>
          <path class="cls-2" d="M411.17,188.03c3.64,0,6.03-1.95,6.03-4.84v-.06c0-3.14-2.36-4.78-5.9-4.78h-5.56v9.68h5.44ZM403.25,176.06h8.23c4.96,0,8.23,2.64,8.23,6.97v.06c0,4.74-3.96,7.19-8.64,7.19h-5.34v7.76h-2.48v-21.99Z"/>
        </g>
        <path class="cls-2" d="M422.79,181.8h2.42v16.24h-2.42v-16.24ZM422.63,175.59h2.76v2.67h-2.76v-2.67Z"/>
        <g>
          <path class="cls-2" d="M443.49,189.97v-.06c0-3.83-2.64-6.28-5.72-6.28s-5.87,2.54-5.87,6.25v.06c0,3.77,2.86,6.28,5.87,6.28s5.72-2.32,5.72-6.25M429.57,181.8h2.42v3.27c1.32-1.95,3.24-3.61,6.22-3.61,3.9,0,7.76,3.08,7.76,8.42v.06c0,5.31-3.83,8.45-7.76,8.45-3.02,0-4.96-1.63-6.22-3.45v8.14h-2.42v-21.27Z"/>
          <path class="cls-2" d="M461.08,188.97c-.28-2.95-1.98-5.47-5.18-5.47-2.8,0-4.93,2.33-5.28,5.47h10.46ZM456.34,196.32c2.23,0,3.8-.91,5.12-2.29l1.51,1.35c-1.63,1.82-3.61,3.05-6.69,3.05-4.46,0-8.11-3.42-8.11-8.48,0-4.71,3.3-8.48,7.79-8.48,4.8,0,7.57,3.83,7.57,8.61,0,.22,0,.47-.03.85h-12.88c.35,3.42,2.86,5.4,5.72,5.4"/>
        </g>
        <rect class="cls-2" x="466.73" y="175.11" width="2.42" height="22.94"/>
        <path class="cls-2" d="M473.74,181.8h2.42v16.24h-2.42v-16.24ZM473.58,175.59h2.76v2.67h-2.76v-2.67Z"/>
        <g>
          <path class="cls-2" d="M480.53,181.8h2.42v2.83c1.07-1.76,2.76-3.17,5.56-3.17,3.93,0,6.22,2.64,6.22,6.5v10.08h-2.42v-9.49c0-3.02-1.64-4.9-4.49-4.9s-4.87,2.04-4.87,5.09v9.3h-2.42v-16.24Z"/>
          <path class="cls-2" d="M510.52,188.97c-.28-2.95-1.98-5.47-5.18-5.47-2.8,0-4.93,2.33-5.28,5.47h10.46ZM505.78,196.32c2.23,0,3.8-.91,5.12-2.29l1.51,1.35c-1.63,1.82-3.61,3.05-6.69,3.05-4.46,0-8.11-3.42-8.11-8.48,0-4.71,3.3-8.48,7.79-8.48,4.8,0,7.57,3.83,7.57,8.61,0,.22,0,.47-.03.85h-12.88c.35,3.42,2.86,5.4,5.72,5.4"/>
          <path class="cls-2" d="M514.61,195.97l1.22-1.73c1.76,1.32,3.71,2.07,5.63,2.07s3.36-1.01,3.36-2.58v-.06c0-1.63-1.92-2.26-4.05-2.86-2.55-.72-5.37-1.61-5.37-4.59v-.06c0-2.79,2.33-4.65,5.53-4.65,1.98,0,4.18.69,5.84,1.79l-1.1,1.82c-1.51-.97-3.24-1.57-4.81-1.57-1.92,0-3.14,1.01-3.14,2.36v.06c0,1.54,2.01,2.14,4.18,2.8,2.51.75,5.22,1.73,5.22,4.65v.06c0,3.08-2.55,4.87-5.78,4.87-2.32,0-4.9-.91-6.72-2.39"/>
          <path class="cls-2" d="M539.42,183.94h-2.23v-2.11h2.23v-1.41c0-1.85.5-3.27,1.41-4.18.82-.82,2.01-1.26,3.49-1.26,1.13,0,1.88.12,2.67.41v2.1c-.88-.25-1.54-.41-2.36-.41-1.89,0-2.83,1.13-2.83,3.45v1.32h5.15v2.07h-5.12v14.11h-2.42v-14.11Z"/>
          <path class="cls-2" d="M561.92,190.01v-.06c0-3.49-2.61-6.35-6.03-6.35s-5.94,2.86-5.94,6.28v.06c0,3.49,2.57,6.31,6,6.31s5.97-2.83,5.97-6.25M547.47,190.01v-.06c0-4.59,3.58-8.48,8.48-8.48s8.45,3.83,8.45,8.42v.06c0,4.58-3.61,8.48-8.51,8.48s-8.42-3.83-8.42-8.42"/>
          <path class="cls-2" d="M567.51,181.8h2.42v4.24c1.19-2.7,3.55-4.65,6.63-4.52v2.61h-.19c-3.55,0-6.44,2.54-6.44,7.44v6.47h-2.42v-16.24Z"/>
          <path class="cls-2" d="M587.99,193.74v-9.8h-2.26v-2.14h2.26v-4.9h2.42v4.9h5.15v2.14h-5.15v9.49c0,1.98,1.1,2.7,2.73,2.7.82,0,1.51-.16,2.36-.57v2.07c-.85.44-1.76.69-2.92.69-2.61,0-4.59-1.29-4.59-4.59"/>
          <path class="cls-2" d="M598.58,175.11h2.42v9.52c1.07-1.76,2.76-3.17,5.56-3.17,3.93,0,6.22,2.64,6.22,6.5v10.08h-2.42v-9.49c0-3.02-1.64-4.9-4.49-4.9s-4.87,2.04-4.87,5.09v9.3h-2.42v-22.93Z"/>
          <path class="cls-2" d="M628.58,188.97c-.28-2.95-1.98-5.47-5.18-5.47-2.8,0-4.93,2.33-5.28,5.47h10.46ZM623.84,196.32c2.23,0,3.8-.91,5.12-2.29l1.51,1.35c-1.63,1.82-3.61,3.05-6.69,3.05-4.46,0-8.11-3.42-8.11-8.48,0-4.71,3.3-8.48,7.79-8.48,4.8,0,7.57,3.83,7.57,8.61,0,.22,0,.47-.03.85h-12.88c.35,3.42,2.86,5.4,5.72,5.4"/>
          <path class="cls-2" d="M222.5,220.39v-.06c0-6.22,4.65-11.37,11.12-11.37,3.99,0,6.38,1.41,8.58,3.49l-1.69,1.82c-1.85-1.76-3.93-3.02-6.91-3.02-4.87,0-8.51,3.96-8.51,9.02v.06c0,5.09,3.68,9.08,8.51,9.08,3.02,0,5-1.16,7.1-3.17l1.63,1.6c-2.29,2.33-4.81,3.87-8.79,3.87-6.35,0-11.03-5-11.03-11.31"/>
          <path class="cls-2" d="M258.12,223.28v-.06c0-3.49-2.61-6.35-6.03-6.35s-5.94,2.86-5.94,6.28v.06c0,3.49,2.57,6.31,6,6.31s5.97-2.83,5.97-6.25M243.67,223.28v-.06c0-4.59,3.58-8.48,8.48-8.48s8.45,3.83,8.45,8.42v.06c0,4.58-3.61,8.48-8.51,8.48s-8.42-3.83-8.42-8.42"/>
          <path class="cls-2" d="M276.84,222.43v-.06c0-3.33-2.89-5.5-5.97-5.5s-5.63,2.14-5.63,5.47v.06c0,3.27,2.61,5.53,5.63,5.53s5.97-2.23,5.97-5.5M263.52,234.15l1.1-1.89c1.86,1.35,3.93,2.07,6.25,2.07,3.58,0,5.9-1.98,5.9-5.78v-1.92c-1.41,1.88-3.39,3.42-6.38,3.42-3.9,0-7.63-2.92-7.63-7.6v-.06c0-4.74,3.77-7.66,7.63-7.66,3.05,0,5.02,1.51,6.35,3.27v-2.92h2.42v13.41c0,2.51-.75,4.43-2.07,5.75-1.45,1.45-3.61,2.17-6.19,2.17s-5.21-.76-7.38-2.26"/>
          <path class="cls-2" d="M283.31,215.08h2.42v2.83c1.07-1.76,2.76-3.17,5.56-3.17,3.93,0,6.22,2.64,6.22,6.5v10.08h-2.42v-9.49c0-3.02-1.64-4.9-4.49-4.9s-4.87,2.04-4.87,5.09v9.3h-2.42v-16.24Z"/>
        </g>
        <rect class="cls-2" x="302.04" y="209.33" width="2.48" height="21.99"/>
        <path class="cls-2" d="M310.14,227.02v-9.8h-2.26v-2.14h2.26v-4.9h2.42v4.9h5.15v2.14h-5.15v9.49c0,1.98,1.1,2.7,2.73,2.7.82,0,1.51-.16,2.36-.57v2.07c-.85.44-1.76.69-2.92.69-2.61,0-4.59-1.29-4.59-4.59"/>
        <path class="cls-2" d="M320.94,215.08h2.42v16.24h-2.42v-16.24ZM320.79,208.86h2.76v2.67h-2.76v-2.67Z"/>
        <polygon class="cls-2" points="326.13 215.08 328.8 215.08 334.26 228.56 339.76 215.08 342.37 215.08 335.3 231.45 333.17 231.45 326.13 215.08"/>
        <g>
          <path class="cls-2" d="M355.88,222.24c-.28-2.95-1.98-5.47-5.18-5.47-2.8,0-4.93,2.33-5.28,5.47h10.46ZM351.13,229.59c2.23,0,3.8-.91,5.12-2.29l1.51,1.35c-1.63,1.82-3.61,3.05-6.69,3.05-4.46,0-8.11-3.42-8.11-8.48,0-4.71,3.3-8.48,7.79-8.48,4.8,0,7.57,3.83,7.57,8.61,0,.22,0,.47-.03.85h-12.88c.35,3.42,2.86,5.4,5.72,5.4"/>
          <path class="cls-2" d="M368.92,220.39v-.06c0-6.22,4.65-11.37,11.12-11.37,3.99,0,6.38,1.41,8.58,3.49l-1.69,1.82c-1.85-1.76-3.93-3.02-6.91-3.02-4.87,0-8.51,3.96-8.51,9.02v.06c0,5.09,3.68,9.08,8.51,9.08,3.02,0,5-1.16,7.1-3.17l1.63,1.6c-2.29,2.33-4.81,3.87-8.79,3.87-6.35,0-11.03-5-11.03-11.31"/>
          <path class="cls-2" d="M404.54,223.28v-.06c0-3.49-2.61-6.35-6.03-6.35s-5.94,2.86-5.94,6.28v.06c0,3.49,2.57,6.31,6,6.31s5.97-2.83,5.97-6.25M390.09,223.28v-.06c0-4.59,3.58-8.48,8.48-8.48s8.45,3.83,8.45,8.42v.06c0,4.58-3.61,8.48-8.51,8.48s-8.42-3.83-8.42-8.42"/>
          <path class="cls-2" d="M410.13,215.08h2.42v2.73c1.07-1.6,2.51-3.08,5.24-3.08s4.33,1.41,5.22,3.24c1.16-1.79,2.89-3.24,5.72-3.24,3.74,0,6.03,2.51,6.03,6.53v10.05h-2.42v-9.49c0-3.14-1.57-4.9-4.21-4.9-2.45,0-4.49,1.82-4.49,5.03v9.36h-2.39v-9.55c0-3.05-1.6-4.84-4.18-4.84s-4.52,2.14-4.52,5.12v9.27h-2.42v-16.24Z"/>
          <path class="cls-2" d="M452.66,223.25v-.06c0-3.83-2.64-6.28-5.72-6.28s-5.87,2.54-5.87,6.25v.06c0,3.77,2.86,6.28,5.87,6.28s5.72-2.32,5.72-6.25M438.75,215.08h2.42v3.27c1.32-1.95,3.24-3.61,6.22-3.61,3.9,0,7.76,3.08,7.76,8.42v.06c0,5.31-3.83,8.45-7.76,8.45-3.02,0-4.96-1.63-6.22-3.45v8.14h-2.42v-21.27Z"/>
          <path class="cls-2" d="M458.1,225.16v-10.08h2.42v9.49c0,3.02,1.64,4.9,4.49,4.9s4.87-2.04,4.87-5.09v-9.3h2.39v16.24h-2.39v-2.83c-1.1,1.76-2.77,3.17-5.56,3.17-3.93,0-6.22-2.64-6.22-6.5"/>
          <path class="cls-2" d="M477.29,227.02v-9.8h-2.26v-2.14h2.26v-4.9h2.42v4.9h5.15v2.14h-5.15v9.49c0,1.98,1.1,2.7,2.73,2.7.82,0,1.51-.16,2.36-.57v2.07c-.85.44-1.76.69-2.92.69-2.61,0-4.59-1.29-4.59-4.59"/>
          <path class="cls-2" d="M499.31,222.24c-.28-2.95-1.98-5.47-5.18-5.47-2.8,0-4.93,2.33-5.28,5.47h10.46ZM494.57,229.59c2.23,0,3.8-.91,5.12-2.29l1.51,1.35c-1.63,1.82-3.61,3.05-6.69,3.05-4.46,0-8.11-3.42-8.11-8.48,0-4.71,3.3-8.48,7.79-8.48,4.8,0,7.57,3.83,7.57,8.61,0,.22,0,.47-.03.85h-12.88c.35,3.42,2.86,5.4,5.72,5.4"/>
          <path class="cls-2" d="M512.35,220.39v-.06c0-6.22,4.65-11.37,11.12-11.37,3.99,0,6.38,1.41,8.58,3.49l-1.69,1.82c-1.85-1.76-3.93-3.02-6.91-3.02-4.87,0-8.51,3.96-8.51,9.02v.06c0,5.09,3.68,9.08,8.51,9.08,3.02,0,5-1.16,7.1-3.17l1.63,1.6c-2.29,2.33-4.81,3.87-8.79,3.87-6.35,0-11.03-5-11.03-11.31"/>
          <path class="cls-2" d="M547.97,223.28v-.06c0-3.49-2.61-6.35-6.03-6.35s-5.94,2.86-5.94,6.28v.06c0,3.49,2.57,6.31,6,6.31s5.97-2.83,5.97-6.25M533.52,223.28v-.06c0-4.59,3.58-8.48,8.48-8.48s8.45,3.83,8.45,8.42v.06c0,4.58-3.61,8.48-8.51,8.48s-8.42-3.83-8.42-8.42"/>
          <path class="cls-2" d="M553.56,215.08h2.42v2.83c1.07-1.76,2.76-3.17,5.56-3.17,3.93,0,6.22,2.64,6.22,6.5v10.08h-2.42v-9.49c0-3.02-1.64-4.9-4.49-4.9s-4.87,2.04-4.87,5.09v9.3h-2.42v-16.24Z"/>
          <path class="cls-2" d="M572.5,227.02v-9.8h-2.26v-2.14h2.26v-4.9h2.42v4.9h5.15v2.14h-5.15v9.49c0,1.98,1.1,2.7,2.73,2.7.82,0,1.51-.16,2.36-.57v2.07c-.85.44-1.76.69-2.92.69-2.61,0-4.59-1.29-4.59-4.59"/>
        </g>
        <path class="cls-2" d="M583.31,215.08h2.42v16.24h-2.42v-16.24ZM583.16,208.86h2.76v2.67h-2.76v-2.67Z"/>
        <path class="cls-2" d="M590.1,215.08h2.42v2.83c1.07-1.76,2.76-3.17,5.56-3.17,3.93,0,6.22,2.64,6.22,6.5v10.08h-2.42v-9.49c0-3.02-1.64-4.9-4.49-4.9s-4.87,2.04-4.87,5.09v9.3h-2.42v-16.24Z"/>
        <path class="cls-2" d="M607.94,225.16v-10.08h2.42v9.49c0,3.02,1.64,4.9,4.49,4.9s4.87-2.04,4.87-5.09v-9.3h2.39v16.24h-2.39v-2.83c-1.1,1.76-2.77,3.17-5.56,3.17-3.93,0-6.22-2.64-6.22-6.5"/>
        <path class="cls-2" d="M626.04,225.16v-10.08h2.42v9.49c0,3.02,1.64,4.9,4.49,4.9s4.87-2.04,4.87-5.09v-9.3h2.39v16.24h-2.39v-2.83c-1.1,1.76-2.77,3.17-5.56,3.17-3.93,0-6.22-2.64-6.22-6.5"/>
        <path class="cls-2" d="M644.38,215.08h2.42v2.73c1.07-1.6,2.51-3.08,5.24-3.08s4.33,1.41,5.21,3.24c1.16-1.79,2.89-3.24,5.72-3.24,3.74,0,6.03,2.51,6.03,6.53v10.05h-2.42v-9.49c0-3.14-1.57-4.9-4.21-4.9-2.45,0-4.49,1.82-4.49,5.03v9.36h-2.39v-9.55c0-3.05-1.6-4.84-4.18-4.84s-4.52,2.14-4.52,5.12v9.27h-2.42v-16.24Z"/>
      </g>
      <g>
        <path class="cls-2" d="M279.93,65.53c0-7.78-6.29-11.91-15.06-11.91s-14.9,3.81-14.9,10.09c0,8.6,13.74,8.77,17.54,9.1,16.38,2.15,37.07,6.45,42.03,27.3.49,2.65.83,5.63.83,8.11,0,24.16-23.5,38.06-45.51,38.06-18.86,0-44.51-11.59-44.51-41.04h28.63c0,11.42,9.6,13.57,16.05,13.57,9.26,0,16.71-2.65,16.71-9.27,0-8.28-13.24-8.6-17.54-9.1-18.7-1.82-40.87-5.95-43.02-32.6v.16c-1.33-25.49,19.53-40.71,44.18-40.71,20.69,0,43.03,11.58,43.03,38.23h-28.46Z"/>
        <path class="cls-2" d="M367.85,83.74c17.54,0,17.54-27.31,0-27.31h-16.05v27.31h16.05ZM367.85,28.96c54.27,0,54.11,81.42,0,81.42h-16.05v34.42h-28.3V28.96h44.35Z"/>
        <rect class="cls-2" x="421.62" y="28.96" width="28.3" height="115.84"/>
        <path class="cls-2" d="M554.09,96.15h28.63c-4.3,30.28-29.13,50.31-59.24,50.31-33.1,0-59.9-25.32-59.9-59.41s26.81-59.91,59.9-59.91c29.79,0,55.44,20.19,59.08,49.98h-28.63c-8.61-33.76-62.22-30.45-62.22,9.93s54.27,43.35,62.39,9.1"/>
        <polygon class="cls-2" points="593.46 28.96 593.46 60.35 619.91 86.8 593.46 113.24 593.46 144.8 669.91 144.8 669.91 117.49 621.93 117.49 621.93 100.61 668.76 100.61 668.76 73.14 621.93 73.14 621.93 56.26 669.75 56.26 669.75 28.96 593.46 28.96"/>
      </g>
      <g>
        <path class="cls-1" d="M95.5,182.16c-9.08,0-16.47,7.39-16.47,16.47s7.39,16.47,16.47,16.47,16.47-7.39,16.47-16.47-7.39-16.47-16.47-16.47"/>
        <path class="cls-1" d="M95.5,227.7c-9.08,0-16.47,7.39-16.47,16.47s7.39,16.47,16.47,16.47,16.47-7.39,16.47-16.47-7.39-16.47-16.47-16.47"/>
        <path class="cls-1" d="M95.5,136.62c-9.08,0-16.47,7.39-16.47,16.47s7.39,16.47,16.47,16.47,16.47-7.39,16.47-16.47-7.39-16.47-16.47-16.47"/>
        <path class="cls-1" d="M95.5,91.08c-9.08,0-16.47,7.39-16.47,16.47s7.39,16.47,16.47,16.47,16.47-7.39,16.47-16.47-7.39-16.47-16.47-16.47"/>
        <path class="cls-1" d="M95.5,45.54c-9.08,0-16.47,7.39-16.47,16.47s7.39,16.47,16.47,16.47,16.47-7.39,16.47-16.47-7.39-16.47-16.47-16.47"/>
        <path class="cls-1" d="M98.72.31c-11.58-2.21-21.59,7.81-19.38,19.39,1.24,6.47,6.46,11.69,12.93,12.93,11.59,2.22,21.61-7.81,19.39-19.39-1.24-6.47-6.46-11.69-12.94-12.93"/>
        <path class="cls-1" d="M111.97,16.47c0,9.09-7.37,16.47-16.47,16.47s-16.47-7.37-16.47-16.47S86.41,0,95.5,0s16.47,7.37,16.47,16.47"/>
        <path class="cls-1" d="M111.97,244.17c0,9.1-7.37,16.47-16.47,16.47s-16.47-7.37-16.47-16.47,7.37-16.47,16.47-16.47,16.47,7.37,16.47,16.47"/>
        <path class="cls-1" d="M111.97,198.63c0,9.09-7.37,16.47-16.47,16.47s-16.47-7.37-16.47-16.47,7.37-16.47,16.47-16.47,16.47,7.37,16.47,16.47"/>
        <path class="cls-1" d="M111.97,153.09c0,9.09-7.37,16.47-16.47,16.47s-16.47-7.37-16.47-16.47,7.37-16.47,16.47-16.47,16.47,7.37,16.47,16.47"/>
        <path class="cls-1" d="M111.97,107.55c0,9.1-7.37,16.47-16.47,16.47s-16.47-7.37-16.47-16.47,7.37-16.47,16.47-16.47,16.47,7.37,16.47,16.47"/>
        <path class="cls-1" d="M111.97,62.01c0,9.09-7.37,16.47-16.47,16.47s-16.47-7.37-16.47-16.47,7.37-16.47,16.47-16.47,16.47,7.37,16.47,16.47"/>
        <path class="cls-3" d="M134.98,204.93c-9.08,0-16.47,7.39-16.47,16.47s7.39,16.47,16.47,16.47,16.47-7.39,16.47-16.47-7.39-16.47-16.47-16.47"/>
        <path class="cls-3" d="M134.98,159.39c-9.08,0-16.47,7.39-16.47,16.47s7.39,16.47,16.47,16.47,16.47-7.39,16.47-16.47-7.39-16.47-16.47-16.47"/>
        <path class="cls-3" d="M134.98,113.85c-9.08,0-16.47,7.39-16.47,16.47s7.39,16.47,16.47,16.47,16.47-7.39,16.47-16.47-7.39-16.47-16.47-16.47"/>
        <path class="cls-3" d="M134.98,68.31c-9.08,0-16.47,7.39-16.47,16.47s7.39,16.47,16.47,16.47,16.47-7.39,16.47-16.47-7.39-16.47-16.47-16.47"/>
        <path class="cls-3" d="M134.98,22.77c-9.08,0-16.47,7.39-16.47,16.47s7.39,16.47,16.47,16.47,16.47-7.39,16.47-16.47-7.39-16.47-16.47-16.47"/>
        <path class="cls-3" d="M151.45,39.24c0,9.1-7.37,16.47-16.47,16.47s-16.47-7.37-16.47-16.47,7.37-16.47,16.47-16.47,16.47,7.37,16.47,16.47"/>
        <path class="cls-3" d="M151.45,221.4c0,9.09-7.37,16.47-16.47,16.47s-16.47-7.37-16.47-16.47,7.37-16.47,16.47-16.47,16.47,7.37,16.47,16.47"/>
        <path class="cls-3" d="M151.45,175.86c0,9.09-7.37,16.47-16.47,16.47s-16.47-7.37-16.47-16.47,7.37-16.47,16.47-16.47,16.47,7.37,16.47,16.47"/>
        <path class="cls-3" d="M151.45,130.32c0,9.09-7.37,16.47-16.47,16.47s-16.47-7.37-16.47-16.47,7.37-16.47,16.47-16.47,16.47,7.37,16.47,16.47"/>
        <path class="cls-3" d="M151.45,84.78c0,9.09-7.37,16.47-16.47,16.47s-16.47-7.37-16.47-16.47,7.37-16.47,16.47-16.47,16.47,7.37,16.47,16.47"/>
        <path class="cls-3" d="M56.1,204.93c-9.08,0-16.47,7.39-16.47,16.47s7.39,16.47,16.47,16.47,16.47-7.39,16.47-16.47-7.39-16.47-16.47-16.47"/>
        <path class="cls-3" d="M56.1,159.39c-9.08,0-16.47,7.39-16.47,16.47s7.39,16.47,16.47,16.47,16.47-7.39,16.47-16.47-7.39-16.47-16.47-16.47"/>
        <path class="cls-3" d="M56.1,113.85c-9.08,0-16.47,7.39-16.47,16.47s7.39,16.47,16.47,16.47,16.47-7.39,16.47-16.47-7.39-16.47-16.47-16.47"/>
        <path class="cls-3" d="M56.1,68.31c-9.08,0-16.47,7.39-16.47,16.47s7.39,16.47,16.47,16.47,16.47-7.39,16.47-16.47-7.39-16.47-16.47-16.47"/>
        <path class="cls-3" d="M56.1,22.77c-9.08,0-16.47,7.39-16.47,16.47s7.39,16.47,16.47,16.47,16.47-7.39,16.47-16.47-7.39-16.47-16.47-16.47"/>
        <path class="cls-3" d="M72.56,39.24c0,9.1-7.37,16.47-16.47,16.47s-16.47-7.37-16.47-16.47,7.37-16.47,16.47-16.47,16.47,7.37,16.47,16.47"/>
        <path class="cls-3" d="M72.56,221.4c0,9.09-7.37,16.47-16.47,16.47s-16.47-7.37-16.47-16.47,7.37-16.47,16.47-16.47,16.47,7.37,16.47,16.47"/>
        <path class="cls-3" d="M72.56,175.86c0,9.09-7.37,16.47-16.47,16.47s-16.47-7.37-16.47-16.47,7.37-16.47,16.47-16.47,16.47,7.37,16.47,16.47"/>
        <path class="cls-3" d="M72.56,130.32c0,9.09-7.37,16.47-16.47,16.47s-16.47-7.37-16.47-16.47,7.37-16.47,16.47-16.47,16.47,7.37,16.47,16.47"/>
        <path class="cls-3" d="M72.56,84.78c0,9.09-7.37,16.47-16.47,16.47s-16.47-7.37-16.47-16.47,7.37-16.47,16.47-16.47,16.47,7.37,16.47,16.47"/>
        <path class="cls-2" d="M16.47,136.62c-9.08,0-16.47,7.39-16.47,16.47s7.39,16.47,16.47,16.47,16.47-7.39,16.47-16.47-7.39-16.47-16.47-16.47"/>
        <path class="cls-2" d="M16.47,182.16c-9.08,0-16.47,7.39-16.47,16.47s7.39,16.47,16.47,16.47,16.47-7.39,16.47-16.47-7.39-16.47-16.47-16.47"/>
        <path class="cls-2" d="M16.47,91.08c-9.08,0-16.47,7.39-16.47,16.47s7.39,16.47,16.47,16.47,16.47-7.39,16.47-16.47-7.39-16.47-16.47-16.47"/>
        <path class="cls-2" d="M16.47,45.54C7.39,45.54,0,52.93,0,62.01s7.39,16.47,16.47,16.47,16.47-7.39,16.47-16.47-7.39-16.47-16.47-16.47"/>
        <path class="cls-2" d="M32.93,62.01c0,9.09-7.37,16.47-16.47,16.47S0,71.1,0,62.01s7.37-16.47,16.47-16.47,16.47,7.37,16.47,16.47"/>
        <path class="cls-2" d="M32.93,198.63c0,9.09-7.37,16.47-16.47,16.47S0,207.72,0,198.63s7.37-16.47,16.47-16.47,16.47,7.37,16.47,16.47"/>
        <path class="cls-2" d="M32.93,153.09c0,9.1-7.37,16.47-16.47,16.47S0,162.19,0,153.09s7.37-16.47,16.47-16.47,16.47,7.37,16.47,16.47"/>
        <path class="cls-2" d="M32.93,107.55c0,9.09-7.37,16.47-16.47,16.47S0,116.64,0,107.55s7.37-16.47,16.47-16.47,16.47,7.37,16.47,16.47"/>
        <path class="cls-2" d="M174.54,136.62c-9.08,0-16.47,7.39-16.47,16.47s7.39,16.47,16.47,16.47,16.47-7.39,16.47-16.47-7.39-16.47-16.47-16.47"/>
        <path class="cls-2" d="M174.54,91.08c-9.08,0-16.47,7.39-16.47,16.47s7.39,16.47,16.47,16.47,16.47-7.39,16.47-16.47-7.39-16.47-16.47-16.47"/>
        <path class="cls-2" d="M191,153.09c0,9.1-7.37,16.47-16.47,16.47s-16.47-7.37-16.47-16.47,7.37-16.47,16.47-16.47,16.47,7.37,16.47,16.47"/>
        <path class="cls-2" d="M191,107.55c0,9.09-7.37,16.47-16.47,16.47s-16.47-7.37-16.47-16.47,7.37-16.47,16.47-16.47,16.47,7.37,16.47,16.47"/>
      </g>
    </g>
  </g>
</svg>